<svg xmlns="http://www.w3.org/2000/svg" xmlns:xlink="http://www.w3.org/1999/xlink" preserveAspectRatio="xMidYMid" width="614" height="325.031" viewBox="0 0 614 325.031">
  <defs>
    <style>
      .cls-1 {
        fill: #000;
        fill-rule: evenodd;
      }
    </style>
  </defs>
  <path d="M482.468,203.257 C447.906,226.511 367.053,216.310 341.261,212.302 C342.194,214.389 343.181,216.445 344.280,218.432 C365.603,252.822 393.202,271.563 390.809,287.109 C391.298,289.548 390.816,291.225 389.056,291.855 C388.838,292.218 388.628,292.582 388.370,292.943 C383.024,296.682 377.832,300.011 372.772,303.006 C358.817,313.064 337.285,325.992 306.867,324.907 C275.741,326.242 253.841,312.900 239.789,302.718 C234.868,299.790 229.821,296.545 224.630,292.915 C224.391,292.580 224.198,292.242 223.993,291.904 C222.184,291.286 221.694,289.588 222.196,287.112 C219.762,271.561 247.383,252.820 268.720,218.411 C269.792,216.474 270.756,214.470 271.670,212.436 C244.779,216.548 165.629,226.165 131.532,203.229 C119.005,200.664 6.959,186.004 0.000,119.670 C100.344,71.885 145.215,64.598 184.109,58.003 C188.942,55.742 210.130,48.144 255.684,61.703 C261.743,59.455 267.673,55.576 273.294,51.895 C274.515,47.411 279.504,30.098 287.086,16.906 C290.567,7.725 296.311,-0.000 305.795,-0.000 C306.034,-0.000 306.266,0.013 306.500,0.023 C306.734,0.013 306.966,-0.000 307.205,-0.000 C317.313,-0.000 323.174,8.775 326.573,18.738 C333.073,30.944 337.854,45.861 339.434,51.083 C345.430,54.995 351.800,59.298 358.316,61.712 C403.719,48.218 424.915,55.709 429.840,57.995 C468.746,64.593 513.612,71.866 614.000,119.682 C607.041,186.029 494.995,200.691 482.468,203.257 Z" class="cls-1"/>
</svg>
