<svg xmlns="http://www.w3.org/2000/svg" xmlns:xlink="http://www.w3.org/1999/xlink" preserveAspectRatio="xMidYMid" width="467" height="467" viewBox="0 0 467 467">
  <defs>
    <style>
      .cls-1 {
        fill: #000;
        fill-rule: evenodd;
      }
    </style>
  </defs>
  <path d="M233.500,467.000 C104.542,467.000 0.000,362.458 0.000,233.500 C0.000,104.542 104.542,0.000 233.500,0.000 C362.458,0.000 467.000,104.542 467.000,233.500 C467.000,362.458 362.458,467.000 233.500,467.000 ZM232.500,20.000 C115.140,20.000 20.000,115.140 20.000,232.500 C20.000,349.860 115.140,445.000 232.500,445.000 C349.860,445.000 445.000,349.860 445.000,232.500 C445.000,115.140 349.860,20.000 232.500,20.000 ZM260.000,312.000 L206.000,312.000 C197.716,312.000 190.822,306.351 190.599,299.316 L183.337,69.354 C183.029,59.592 190.807,51.589 200.713,51.589 L265.287,51.589 C275.193,51.589 282.971,59.592 282.663,69.354 L275.401,299.316 C275.178,306.351 268.284,312.000 260.000,312.000 ZM206.000,331.000 L260.000,331.000 C268.284,331.000 275.000,337.716 275.000,346.000 L275.000,400.000 C275.000,408.284 268.284,415.000 260.000,415.000 L206.000,415.000 C197.716,415.000 191.000,408.284 191.000,400.000 L191.000,346.000 C191.000,337.716 197.716,331.000 206.000,331.000 Z" class="cls-1"/>
</svg>
