<svg xmlns="http://www.w3.org/2000/svg" xmlns:xlink="http://www.w3.org/1999/xlink" preserveAspectRatio="xMidYMid" width="1035" height="653" viewBox="0 0 1035 653">
  <defs>
    <style>
      .cls-1 {
        fill: #000;
        fill-rule: evenodd;
      }
    </style>
  </defs>
  <path d="M1020.000,653.000 L15.000,653.000 C6.716,653.000 -0.000,646.284 -0.000,638.000 L-0.000,15.000 C-0.000,6.716 6.716,-0.000 15.000,-0.000 L1020.000,-0.000 C1028.284,-0.000 1035.000,6.716 1035.000,15.000 L1035.000,638.000 C1035.000,646.284 1028.284,653.000 1020.000,653.000 ZM997.000,41.000 L41.000,41.000 L41.000,615.000 L997.000,615.000 L997.000,41.000 ZM241.835,382.000 C264.502,381.757 261.264,413.324 321.979,412.271 C382.694,411.219 383.181,382.383 401.232,382.000 C537.580,382.121 565.837,426.152 565.972,489.731 C565.972,489.731 566.047,563.472 565.972,544.931 C565.972,544.931 559.013,570.096 537.477,569.861 L110.605,570.012 C97.759,570.183 86.925,562.533 86.890,544.931 C86.890,544.931 86.000,490.557 86.000,488.840 C86.424,419.978 110.672,382.344 241.835,382.000 ZM648.000,181.000 L915.000,181.000 C923.284,181.000 930.000,187.716 930.000,196.000 L930.000,218.000 C930.000,226.284 923.284,233.000 915.000,233.000 L648.000,233.000 C639.716,233.000 633.000,226.284 633.000,218.000 L633.000,196.000 C633.000,187.716 639.716,181.000 648.000,181.000 ZM648.000,301.000 L915.000,301.000 C923.284,301.000 930.000,307.716 930.000,316.000 L930.000,338.000 C930.000,346.284 923.284,353.000 915.000,353.000 L648.000,353.000 C639.716,353.000 633.000,346.284 633.000,338.000 L633.000,316.000 C633.000,307.716 639.716,301.000 648.000,301.000 ZM648.000,421.000 L915.000,421.000 C923.284,421.000 930.000,427.716 930.000,436.000 L930.000,458.000 C930.000,466.284 923.284,473.000 915.000,473.000 L648.000,473.000 C639.716,473.000 633.000,466.284 633.000,458.000 L633.000,436.000 C633.000,427.716 639.716,421.000 648.000,421.000 ZM325.500,351.000 C260.054,351.000 207.000,297.946 207.000,232.500 C207.000,167.054 260.054,114.000 325.500,114.000 C390.946,114.000 444.000,167.054 444.000,232.500 C444.000,297.946 390.946,351.000 325.500,351.000 Z" class="cls-1"/>
</svg>
