<svg xmlns="http://www.w3.org/2000/svg" xmlns:xlink="http://www.w3.org/1999/xlink" preserveAspectRatio="xMidYMid" width="189" height="324.406" viewBox="0 0 189 324.406">
  <defs>
    <style>
      .cls-1 {
        fill: #000;
        fill-rule: evenodd;
      }
    </style>
  </defs>
  <path d="M169.000,324.406 L20.000,324.406 C8.954,324.406 -0.000,315.452 -0.000,304.406 L-0.000,156.406 C-0.000,150.328 2.721,144.894 7.000,141.226 L7.000,106.406 C7.000,47.643 46.175,0.006 94.500,0.006 C142.825,0.006 182.000,47.643 182.000,106.406 L182.000,141.226 C186.279,144.894 189.000,150.328 189.000,156.406 L189.000,304.406 C189.000,315.452 180.046,324.406 169.000,324.406 ZM94.500,30.406 C59.982,30.406 32.000,64.432 32.000,106.406 L32.000,136.406 L157.000,136.406 L157.000,106.406 C157.000,64.432 129.018,30.406 94.500,30.406 Z" class="cls-1"/>
</svg>
