<svg xmlns="http://www.w3.org/2000/svg" xmlns:xlink="http://www.w3.org/1999/xlink" preserveAspectRatio="xMidYMid" width="194" height="280" viewBox="0 0 194 280">
  <defs>
    <style>
      .cls-1 {
        fill: #000;
        fill-rule: evenodd;
      }
    </style>
  </defs>
  <path d="M194.000,240.000 C194.000,262.091 176.091,280.000 154.000,280.000 L40.000,280.000 C17.909,280.000 -0.000,262.091 -0.000,240.000 C-0.000,240.000 0.078,214.249 0.121,187.779 C0.044,186.195 -0.000,184.603 -0.000,183.000 L-0.000,97.000 C-0.000,43.428 43.428,0.000 97.000,0.000 C150.572,0.000 194.000,43.428 194.000,97.000 L194.000,183.000 C194.000,184.600 193.956,186.190 193.879,187.772 C193.922,214.317 194.000,240.000 194.000,240.000 ZM96.500,239.000 C107.270,239.000 116.000,230.270 116.000,219.500 C116.000,213.489 113.276,208.117 109.000,204.540 L109.000,182.000 C109.000,176.477 104.523,172.000 99.000,172.000 L94.000,172.000 C88.477,172.000 84.000,176.477 84.000,182.000 L84.000,204.540 C79.724,208.117 77.000,213.489 77.000,219.500 C77.000,230.270 85.730,239.000 96.500,239.000 ZM158.919,97.686 C158.919,63.929 131.553,36.563 97.795,36.563 L96.205,36.563 C62.447,36.563 35.081,63.929 35.081,97.686 L35.081,130.002 C36.858,130.000 38.522,130.000 40.000,130.000 C40.000,130.000 113.472,130.000 158.919,130.000 L158.919,97.686 Z" class="cls-1"/>
</svg>
