<svg xmlns="http://www.w3.org/2000/svg" xmlns:xlink="http://www.w3.org/1999/xlink" preserveAspectRatio="xMidYMid" width="266" height="314" viewBox="0 0 266 314">
  <defs>
    <style>
      .cls-1 {
        fill: #000;
        fill-rule: evenodd;
      }
    </style>
  </defs>
  <path d="M251.000,314.000 L15.000,314.000 C6.716,314.000 0.000,307.284 0.000,299.000 L0.000,164.729 C0.000,158.689 3.578,153.496 8.723,151.119 C8.256,149.833 8.000,149.104 8.000,149.104 C8.000,149.104 5.693,129.366 9.854,105.038 C9.561,105.694 9.275,106.348 9.000,107.000 C9.000,107.000 11.411,4.622 135.000,0.000 C205.322,2.702 235.562,40.736 248.498,78.791 C256.898,101.053 258.142,123.790 257.966,137.131 C258.099,142.743 258.042,147.483 258.000,151.000 C257.998,151.176 257.991,151.310 257.988,151.471 C262.748,153.985 266.000,158.971 266.000,164.729 L266.000,299.000 C266.000,307.284 259.284,314.000 251.000,314.000 ZM44.000,149.104 C44.015,149.316 44.028,149.519 44.043,149.729 L221.261,149.729 C221.279,149.475 221.295,149.229 221.313,148.973 C227.549,61.152 182.937,38.970 154.240,34.492 C153.966,34.512 153.699,34.530 153.428,34.549 C148.156,33.605 130.350,30.986 111.503,34.559 C111.251,34.541 111.004,34.524 110.750,34.506 C82.068,39.086 37.789,61.430 44.000,149.104 Z" class="cls-1"/>
</svg>
