<svg xmlns="http://www.w3.org/2000/svg" xmlns:xlink="http://www.w3.org/1999/xlink" preserveAspectRatio="xMidYMid" width="358" height="364" viewBox="0 0 358 364">
  <defs>
    <style>
      .cls-1 {
        fill: #000;
        fill-rule: evenodd;
      }
    </style>
  </defs>
  <path d="M348.000,364.000 L10.000,364.000 C4.477,364.000 0.000,359.523 0.000,354.000 L0.000,298.000 C0.000,292.477 4.477,288.000 10.000,288.000 L348.000,288.000 C353.523,288.000 358.000,292.477 358.000,298.000 L358.000,354.000 C358.000,359.523 353.523,364.000 348.000,364.000 ZM348.000,220.000 L10.000,220.000 C4.477,220.000 0.000,215.523 0.000,210.000 L0.000,154.000 C0.000,148.477 4.477,144.000 10.000,144.000 L348.000,144.000 C353.523,144.000 358.000,148.477 358.000,154.000 L358.000,210.000 C358.000,215.523 353.523,220.000 348.000,220.000 ZM348.000,76.000 L10.000,76.000 C4.477,76.000 0.000,71.523 0.000,66.000 L0.000,10.000 C0.000,4.477 4.477,0.000 10.000,0.000 L348.000,0.000 C353.523,0.000 358.000,4.477 358.000,10.000 L358.000,66.000 C358.000,71.523 353.523,76.000 348.000,76.000 Z" class="cls-1"/>
</svg>
