<svg xmlns:dc="http://purl.org/dc/elements/1.1/" xmlns:cc="http://creativecommons.org/ns#" xmlns:rdf="http://www.w3.org/1999/02/22-rdf-syntax-ns#" xmlns:svg="http://www.w3.org/2000/svg" xmlns="http://www.w3.org/2000/svg" xmlns:sodipodi="http://sodipodi.sourceforge.net/DTD/sodipodi-0.dtd" xmlns:inkscape="http://www.inkscape.org/namespaces/inkscape" width="20" height="20" class="remove-filter-btn tips" alt="Remove filter"> <path style="fill:#000000;fill-rule:evenodd;stroke:none;stroke-width:0.5;stroke-miterlimit:4;stroke-dasharray:none;stroke-opacity:1;fill-opacity:1" d="M 2.5 1.25 A 0.625 0.625 0 0 0 1.875 1.875 L 1.875 4.375 A 0.625 0.625 0 0 0 2.0351562 4.7929688 L 7.5 10.865234 L 7.5 18.125 A 0.625 0.625 0 0 0 8.3222656 18.716797 L 12.072266 17.466797 A 0.625 0.625 0 0 0 12.5 16.875 L 12.5 10.865234 L 16.464844 6.4589844 A 4.0735662 4.0735662 0 0 1 15.298828 5.8867188 L 11.410156 10.207031 A 0.625 0.625 0 0 0 11.25 10.625 L 11.25 16.425781 L 8.75 17.257812 L 8.75 10.625 A 0.625 0.625 0 0 0 8.5898438 10.207031 L 3.125 4.1347656 L 3.125 2.5 L 13.578125 2.5 A 4.0735662 4.0735662 0 0 1 13.794922 1.25 L 2.5 1.25 z " transform="scale(0.8)" id="path2" /> <path id="path4537-0" style="fill:none;stroke:#FF0000;stroke-width:0.80000001;stroke-linecap:round;stroke-linejoin:miter;stroke-miterlimit:4;stroke-dasharray:none;stroke-opacity:1" d="m 12.537516,2.5363897 2.948276,0.02397" inkscape:connector-curvature="0" sodipodi:nodetypes="cc" /></svg> 