<svg xmlns="http://www.w3.org/2000/svg" xmlns:xlink="http://www.w3.org/1999/xlink" preserveAspectRatio="xMidYMid" width="448.938" height="448.938" viewBox="0 0 448.938 448.938">
  <defs>
    <style>
      .cls-1 {
        fill: #000;
        fill-rule: evenodd;
      }
    </style>
  </defs>
  <path d="M447.469,251.469 C406.047,251.469 372.469,285.047 372.469,326.469 C372.469,345.243 379.383,362.392 390.784,375.548 L365.453,400.903 C351.698,384.155 330.833,373.469 307.469,373.469 C266.047,373.469 232.469,407.047 232.469,448.469 C232.469,448.614 232.479,448.757 232.480,448.902 L196.457,448.919 C196.458,448.768 196.469,448.620 196.469,448.469 C196.469,407.047 162.890,373.469 121.469,373.469 C103.204,373.469 86.470,380.004 73.461,390.855 L48.112,365.531 C64.234,351.775 74.469,331.323 74.469,308.469 C74.469,267.238 41.195,233.790 0.036,233.483 L0.019,197.455 C41.186,197.157 74.469,163.706 74.469,122.469 C74.469,104.204 67.934,87.470 57.083,74.462 L82.407,49.113 C96.163,65.234 116.615,75.469 139.469,75.469 C180.890,75.469 214.469,41.890 214.469,0.469 C214.469,0.324 214.459,0.181 214.458,0.037 L250.480,0.019 C250.479,0.170 250.469,0.318 250.469,0.469 C250.469,41.890 284.047,75.469 325.469,75.469 C344.243,75.469 361.392,68.554 374.547,57.154 L399.902,82.485 C383.154,96.240 372.469,117.105 372.469,140.469 C372.469,181.890 406.047,215.469 447.469,215.469 C447.949,215.469 448.423,215.441 448.901,215.432 L448.919,251.505 C448.434,251.496 447.955,251.469 447.469,251.469 ZM224.469,124.471 C169.242,124.471 124.471,169.242 124.471,224.469 C124.471,279.696 169.242,324.466 224.469,324.466 C279.696,324.466 324.466,279.696 324.466,224.469 C324.466,169.242 279.696,124.471 224.469,124.471 Z" class="cls-1"/>
</svg>
