<svg xmlns="http://www.w3.org/2000/svg" xmlns:xlink="http://www.w3.org/1999/xlink" preserveAspectRatio="xMidYMid" width="373" height="461" viewBox="0 0 389.923 481.915">
  <defs>
    <style>
      .cls-1 {
        stroke: #000;
        stroke-linecap: round;
        stroke-linejoin: round;
        stroke-width: 20px;
        fill: none;
        fill-rule: evenodd;
      }
    </style>
  </defs>
  <path d="M358.000,145.000 L358.000,88.000 L280.000,88.000 L280.000,127.000 L270.000,127.000 L270.000,88.000 L197.000,88.000 L197.000,210.720 L280.003,455.303 L275.586,459.008 L232.000,330.572 L232.000,338.000 L197.000,338.000 L197.000,404.988 L187.000,404.988 L187.000,338.000 L150.007,338.000 L108.464,460.008 L103.997,456.274 L187.000,212.504 L187.000,88.000 L114.000,88.000 L114.000,127.000 L104.000,127.000 L104.000,88.000 L30.000,88.000 L30.000,152.000 L20.000,152.000 L20.000,20.000 L30.000,20.000 L30.000,78.000 L104.000,78.000 L104.000,40.000 L114.000,40.000 L114.000,78.000 L187.000,78.000 L187.000,57.012 L197.000,57.012 L197.000,78.000 L270.000,78.000 L270.000,40.000 L280.000,40.000 L280.000,78.000 L358.000,78.000 L358.000,20.000 L368.000,20.000 L368.000,78.000 L368.000,88.000 L368.000,145.000 L358.000,145.000 ZM197.000,328.000 L231.127,328.000 L197.000,227.438 L197.000,328.000 ZM187.000,229.355 L153.412,328.000 L187.000,328.000 L187.000,229.355 Z" transform="translate(10.96 10.96)" class="cls-1"/>
</svg>
