<svg xmlns="http://www.w3.org/2000/svg" xmlns:xlink="http://www.w3.org/1999/xlink" preserveAspectRatio="xMidYMid" width="373" height="461" viewBox="0 0 389.923 481.915">
  <defs>
    <style>
      .cls-1 {
        stroke: #000;
        stroke-linecap: round;
        stroke-linejoin: round;
        stroke-width: 20px;
        fill: none;
        fill-rule: evenodd;
      }
    </style>
  </defs>
  <path d="M358.000,145.000 L358.000,88.000 L280.000,88.000 L280.000,127.000 L270.000,127.000 L270.000,88.000 L197.000,88.000 L197.000,143.750 L295.306,328.000 L296.000,328.000 L296.000,329.300 L363.411,455.646 L354.589,460.354 L289.307,338.000 L197.000,338.000 L197.000,404.988 L187.000,404.988 L187.000,338.000 L94.693,338.000 L29.411,460.354 L20.589,455.646 L187.000,143.750 L187.000,88.000 L114.000,88.000 L114.000,127.000 L104.000,127.000 L104.000,88.000 L30.000,88.000 L30.000,152.000 L20.000,152.000 L20.000,20.000 L30.000,20.000 L30.000,78.000 L104.000,78.000 L104.000,40.000 L114.000,40.000 L114.000,78.000 L187.000,78.000 L187.000,57.012 L197.000,57.012 L197.000,78.000 L270.000,78.000 L270.000,40.000 L280.000,40.000 L280.000,78.000 L358.000,78.000 L358.000,20.000 L368.000,20.000 L368.000,78.000 L368.000,88.000 L368.000,145.000 L358.000,145.000 ZM197.000,328.000 L283.972,328.000 L197.000,164.993 L197.000,328.000 ZM187.000,164.993 L100.028,328.000 L187.000,328.000 L187.000,164.993 Z" transform="translate(10.96 10.79)" class="cls-1"/>
</svg>
