<svg xmlns="http://www.w3.org/2000/svg" xmlns:xlink="http://www.w3.org/1999/xlink" preserveAspectRatio="xMidYMid" width="788.625" height="716" viewBox="0 0 788.625 716">
  <defs>
    <style>
      .cls-1 {
        fill: #000;
        fill-rule: evenodd;
      }
    </style>
  </defs>
  <path d="M680.868,569.000 C680.868,569.000 674.233,577.163 664.203,589.357 L642.822,566.000 C642.746,566.045 642.678,566.086 642.603,566.130 L640.241,563.543 C644.335,557.884 648.598,552.005 653.072,545.851 C867.726,250.596 652.114,23.490 652.114,23.490 L664.347,13.536 C664.025,13.187 663.848,13.000 663.848,13.000 L679.867,-0.000 C924.012,298.715 680.868,569.000 680.868,569.000 ZM617.364,485.791 C617.364,485.791 612.344,491.971 604.755,501.204 L588.578,483.520 C588.346,483.657 588.130,483.786 587.905,483.920 L586.286,482.146 C589.384,477.861 592.609,473.410 595.994,468.751 C758.397,245.213 595.269,73.270 595.269,73.270 L604.974,65.368 C604.654,65.019 604.486,64.842 604.486,64.842 L616.606,55.000 C801.322,281.158 617.364,485.791 617.364,485.791 ZM552.641,442.487 C552.641,442.487 548.876,447.114 543.185,454.025 L531.052,440.787 C531.021,440.805 530.993,440.822 530.962,440.840 L529.636,439.390 C531.959,436.183 534.378,432.850 536.917,429.363 C658.720,262.024 536.373,133.309 536.373,133.309 L543.285,127.691 C543.090,127.480 542.983,127.368 542.983,127.368 L552.073,120.000 C690.610,289.300 552.641,442.487 552.641,442.487 ZM469.437,231.635 L469.437,471.500 C469.437,488.069 456.006,501.500 439.437,501.500 L407.625,501.500 L407.625,721.000 L395.755,721.000 L395.454,1926.485 L385.816,1926.550 L386.171,501.515 L387.625,501.505 L387.625,501.500 L351.375,501.500 C334.806,501.500 321.375,488.069 321.375,471.500 L321.375,231.209 C302.376,212.264 290.625,186.094 290.625,157.187 C290.625,99.370 337.635,52.500 395.625,52.500 C453.615,52.500 500.625,99.370 500.625,157.187 C500.625,186.314 488.691,212.658 469.437,231.635 ZM251.945,429.266 C254.485,432.750 256.911,436.086 259.235,439.291 L252.296,446.871 C252.200,446.755 252.103,446.637 252.008,446.522 L245.140,454.025 C239.456,447.114 235.695,442.487 235.695,442.487 C235.695,442.487 97.895,289.300 236.263,120.000 L245.342,127.368 C245.342,127.368 245.318,127.393 245.282,127.431 L252.489,133.281 C252.489,133.281 129.987,261.966 251.945,429.266 ZM192.792,468.645 C196.179,473.300 199.414,477.756 202.513,482.037 L193.261,492.163 C193.046,491.901 192.830,491.638 192.619,491.382 L183.645,501.204 C176.066,491.971 171.052,485.791 171.052,485.791 C171.052,485.791 -12.682,281.158 171.809,55.000 L183.914,64.842 C183.914,64.842 183.801,64.961 183.594,65.186 L193.519,73.256 C193.519,73.256 30.182,245.159 192.792,468.645 ZM135.641,545.727 C140.118,551.875 144.393,557.761 148.489,563.415 L136.260,576.790 C136.182,576.695 136.101,576.597 136.023,576.502 L124.270,589.357 C114.252,577.163 107.625,569.000 107.625,569.000 C107.625,569.000 -135.222,298.715 108.625,-0.000 L124.625,13.000 C124.625,13.000 124.485,13.148 124.224,13.431 L136.601,23.487 C136.601,23.487 -79.286,250.541 135.641,545.727 Z" class="cls-1"/>
</svg>
