<svg xmlns="http://www.w3.org/2000/svg" xmlns:xlink="http://www.w3.org/1999/xlink" preserveAspectRatio="xMidYMid" width="166" height="490" viewBox="0 0 166 490">
  <defs>
    <style>
      .cls-1 {
        fill: #000;
        stroke: #000;
        stroke-width: 1px;
        fill-rule: evenodd;
      }
    </style>
  </defs>
  <path d="M137.000,144.430 L137.000,308.000 C137.000,316.284 130.284,323.000 122.000,323.000 L87.000,323.000 L87.000,489.000 L77.000,489.000 L77.000,323.000 L42.000,323.000 C33.716,323.000 27.000,316.284 27.000,308.000 L27.000,143.541 C10.413,128.451 0.000,106.691 0.000,82.500 C0.000,36.937 36.937,-0.000 82.500,-0.000 C128.063,-0.000 165.000,36.937 165.000,82.500 C165.000,107.172 154.166,129.311 137.000,144.430 ZM82.500,10.000 C42.459,10.000 10.000,42.459 10.000,82.500 C10.000,104.842 20.109,124.821 36.000,138.120 L36.000,299.000 C36.000,307.284 42.716,314.000 51.000,314.000 L113.000,314.000 C121.284,314.000 128.000,307.284 128.000,299.000 L128.000,138.941 C144.465,125.651 155.000,105.307 155.000,82.500 C155.000,42.459 122.541,10.000 82.500,10.000 ZM115.816,93.507 C113.613,95.632 110.871,96.695 107.589,96.695 C104.480,96.695 101.902,95.801 99.855,94.011 C97.808,92.222 96.621,89.883 96.293,86.992 L102.668,86.218 C102.870,87.844 103.418,89.086 104.308,89.945 C105.199,90.804 106.277,91.234 107.543,91.234 C108.902,91.234 110.046,90.718 110.976,89.687 C111.906,88.656 112.371,87.265 112.371,85.515 C112.371,83.859 111.925,82.547 111.035,81.578 C110.144,80.609 109.058,80.125 107.777,80.125 C106.933,80.125 105.925,80.289 104.753,80.617 L105.480,75.250 C107.261,75.296 108.621,74.910 109.558,74.089 C110.496,73.269 110.964,72.179 110.964,70.820 C110.964,69.664 110.621,68.742 109.933,68.054 C109.245,67.367 108.331,67.023 107.191,67.023 C106.066,67.023 105.105,67.414 104.308,68.195 C103.511,68.976 103.027,70.117 102.855,71.617 L96.785,70.585 C97.207,68.508 97.843,66.847 98.695,65.605 C99.546,64.363 100.734,63.386 102.257,62.675 C103.781,61.964 105.488,61.609 107.378,61.609 C110.613,61.609 113.206,62.640 115.160,64.703 C116.769,66.390 117.574,68.297 117.574,70.421 C117.574,73.437 115.925,75.844 112.628,77.640 C114.597,78.062 116.171,79.008 117.351,80.476 C118.531,81.945 119.121,83.719 119.121,85.796 C119.121,88.812 118.019,91.383 115.816,93.507 ZM71.238,89.535 C72.488,87.464 74.956,84.718 78.644,81.296 C81.613,78.531 83.433,76.656 84.105,75.671 C85.011,74.312 85.464,72.968 85.464,71.640 C85.464,70.172 85.070,69.043 84.281,68.253 C83.492,67.465 82.402,67.070 81.011,67.070 C79.636,67.070 78.542,67.484 77.730,68.312 C76.917,69.140 76.449,70.515 76.324,72.437 L69.761,71.781 C70.152,68.156 71.378,65.554 73.441,63.976 C75.503,62.398 78.082,61.609 81.175,61.609 C84.566,61.609 87.230,62.523 89.168,64.351 C91.105,66.179 92.074,68.453 92.074,71.171 C92.074,72.718 91.796,74.191 91.242,75.589 C90.687,76.988 89.808,78.453 88.605,79.984 C87.808,81.000 86.370,82.461 84.293,84.367 C82.214,86.273 80.898,87.539 80.343,88.164 C79.788,88.789 79.339,89.398 78.996,89.992 L92.074,89.992 L92.074,96.109 L68.988,96.109 C69.238,93.797 69.988,91.605 71.238,89.535 ZM53.402,71.289 C50.996,73.539 48.160,75.203 44.894,76.281 L44.894,70.304 C46.613,69.742 48.480,68.675 50.496,67.105 C52.511,65.535 53.894,63.703 54.644,61.609 L59.988,61.609 L59.988,96.109 L53.402,96.109 L53.402,71.289 Z" class="cls-1"/>
</svg>
