<?xml version="1.0" encoding="UTF-8" standalone="no"?>
<svg
   xmlns:dc="http://purl.org/dc/elements/1.1/"
   xmlns:cc="http://creativecommons.org/ns#"
   xmlns:rdf="http://www.w3.org/1999/02/22-rdf-syntax-ns#"
   xmlns:svg="http://www.w3.org/2000/svg"
   xmlns="http://www.w3.org/2000/svg"
   xmlns:sodipodi="http://sodipodi.sourceforge.net/DTD/sodipodi-0.dtd"
   xmlns:inkscape="http://www.inkscape.org/namespaces/inkscape"
   preserveAspectRatio="xMidYMid"
   width="500"
   height="500"
   viewBox="0 0 500 500"
   version="1.1"
   id="svg8"
   sodipodi:docname="Tag4.svg"
   inkscape:version="0.92.4 (5da689c313, 2019-01-14)">
  <metadata
     id="metadata12">
    <rdf:RDF>
      <cc:Work
         rdf:about="">
        <dc:format>image/svg+xml</dc:format>
        <dc:type
           rdf:resource="http://purl.org/dc/dcmitype/StillImage" />
        <dc:title></dc:title>
      </cc:Work>
    </rdf:RDF>
  </metadata>
  <sodipodi:namedview
     pagecolor="#ffffff"
     bordercolor="#666666"
     borderopacity="1"
     objecttolerance="10"
     gridtolerance="10"
     guidetolerance="10"
     inkscape:pageopacity="0"
     inkscape:pageshadow="2"
     inkscape:window-width="1622"
     inkscape:window-height="1217"
     id="namedview10"
     showgrid="false"
     fit-margin-top="0"
     fit-margin-left="0"
     fit-margin-right="0"
     fit-margin-bottom="0"
     showguides="true"
     inkscape:guide-bbox="true"
     inkscape:zoom="0.96326531"
     inkscape:cx="71.328015"
     inkscape:cy="177.04809"
     inkscape:window-x="0"
     inkscape:window-y="0"
     inkscape:window-maximized="0"
     inkscape:current-layer="layer5">
    <sodipodi:guide
       position="251.05287,494.03094"
       orientation="1,0"
       id="guide4634"
       inkscape:locked="false" />
  </sodipodi:namedview>
  <defs
     id="defs4">
    <style
       id="style2">
      .cls-1 {
        fill: #000;
        stroke: #000;
        stroke-width: 1px;
        fill-rule: evenodd;
      }
    </style>
  </defs>
  <g
     inkscape:groupmode="layer"
     id="layer2"
     inkscape:label="Original"
     style="display:none"
     sodipodi:insensitive="true">
    <path
       d="m 60.000741,139.56223 v 163.57 c 0,8.284 -6.716,15 -15,15 h -35 v 166 H 7.4097894e-4 v -166 H -34.999259 c -8.284,0 -15,-6.716 -15,-15 v -164.459 c -16.587,-15.09 -27,-36.85 -27,-61.040999 0,-45.563 36.937,-82.4999998 82.5,-82.4999998 45.563,0 82.5,36.9369998 82.5,82.4999998 0,24.671999 -10.834,46.810999 -28,61.929999 z m -54.5,-134.4299988 c -40.041,0 -72.5,32.4589998 -72.5,72.4999998 0,22.342 10.109,42.320999 26,55.619999 v 160.88 c 0,8.284 6.716,15 15,15 h 62 c 8.284,0 15,-6.716 15,-15 v -160.059 c 16.465,-13.29 27,-33.634 27,-56.440999 0,-40.041 -32.459,-72.4999998 -72.5,-72.4999998 z m 33.316,83.5069998 c -2.203,2.125 -4.945,3.188 -8.227,3.188 -3.109,0 -5.687,-0.894 -7.734,-2.684 -2.047,-1.789 -3.234,-4.128 -3.562,-7.019 l 6.375,-0.774 c 0.202,1.626 0.75,2.868 1.64,3.727 0.891,0.859 1.969,1.289 3.235,1.289 1.359,0 2.503,-0.516 3.433,-1.547 0.93,-1.031 1.395,-2.422 1.395,-4.172 0,-1.656 -0.446,-2.968 -1.336,-3.937 -0.891,-0.969 -1.977,-1.453 -3.258,-1.453 -0.844,0 -1.852,0.164 -3.024,0.492 l 0.727,-5.367 c 1.781,0.046 3.141,-0.34 4.078,-1.161 0.938,-0.82 1.406,-1.91 1.406,-3.269 0,-1.156 -0.343,-2.078 -1.031,-2.766 -0.688,-0.687 -1.602,-1.031 -2.742,-1.031 -1.125,0 -2.086,0.391 -2.883,1.172 -0.797,0.781 -1.281,1.922 -1.453,3.422 l -6.07,-1.032 c 0.422,-2.077 1.058,-3.738 1.91,-4.98 0.851,-1.242 2.039,-2.219 3.562,-2.93 1.524,-0.711 3.231,-1.066 5.121,-1.066 3.235,0 5.828,1.031 7.782,3.094 1.609,1.687 2.414,3.594 2.414,5.718 0,3.016 -1.649,5.423 -4.946,7.219 1.969,0.422 3.543,1.368 4.723,2.836 1.18,1.469 1.77,3.243 1.77,5.32 0,3.016 -1.102,5.587 -3.305,7.711 z m -44.578,-3.972 c 1.25,-2.071 3.718,-4.817 7.406,-8.239 2.969,-2.765 4.789,-4.64 5.461,-5.625 0.906,-1.359 1.359,-2.703 1.359,-4.031 0,-1.468 -0.394,-2.597 -1.183,-3.387 -0.789,-0.788 -1.879,-1.183 -3.27,-1.183 -1.375,0 -2.469,0.414 -3.28100002,1.242 -0.813,0.828 -1.281,2.203 -1.406,4.125 l -6.56299998,-0.656 c 0.391,-3.625 1.617,-6.227 3.68,-7.805 2.062,-1.578 4.641,-2.367 7.734,-2.367 3.391,0 6.055,0.914 7.993,2.742 1.937,1.828 2.906,4.102 2.906,6.82 0,1.547 -0.278,3.02 -0.832,4.418 -0.555,1.399 -1.434,2.864 -2.637,4.395 -0.797,1.016 -2.235,2.477 -4.312,4.383 -2.079,1.906 -3.395,3.172 -3.95,3.797 -0.555,0.625 -1.004,1.234 -1.347,1.828 h 13.078 v 6.117 h -23.086 c 0.25,-2.312 1,-4.504 2.25,-6.574 z m -17.836,-18.246 c -2.406,2.25 -5.242,3.914 -8.508,4.992 v -5.977 c 1.719,-0.562 3.586,-1.629 5.602,-3.199 2.015,-1.57 3.398,-3.402 4.148,-5.496 h 5.344 v 34.5 h -6.586 z"
       class="cls-1"
       id="path6"
       inkscape:connector-curvature="0"
       style="fill:#000000;fill-rule:evenodd;stroke:#000000;stroke-width:1px" />
  </g>
  <g
     inkscape:groupmode="layer"
     id="layer1"
     inkscape:label="Tag"
     style="display:inline">
    <path
       style="fill:none;fill-rule:evenodd;stroke:#000000;stroke-width:10;stroke-miterlimit:4;stroke-dasharray:none"
       d="m 307.38806,152.71231 v 163.57 c 0,8.284 -6.716,15 -15,15 -41.28149,-0.71533 -47.28327,1.62781 -80,0 -8.284,0 -15,-6.716 -15,-15 v -164.459 c -16.587,-15.09 -27,-36.85 -27,-61.041001 0,-45.563 36.937,-82.5 82.5,-82.5 45.563,0 82.5,36.937 82.5,82.5 0,24.672001 -10.834,46.811001 -28,61.930001 z"
       id="path4574"
       inkscape:connector-curvature="0"
       sodipodi:nodetypes="csccscsssc" />
  </g>
  <g
     inkscape:groupmode="layer"
     id="layer5"
     inkscape:label="Tag 2"
     style="display:none">
    <path
       style="display:inline;fill:#000000;fill-rule:evenodd;stroke:#000000;stroke-width:1px"
       d="m 418.42145,14.363946 c -40.041,0 -72.5,32.459005 -72.5,72.500005 0,22.341999 10.109,42.320999 26,55.619999 v 160.88 c 0,8.284 6.716,15 15,15 h 62 c 8.284,0 15,-6.716 15,-15 v -160.059 c 16.465,-13.29 27,-33.634 27,-56.440999 0,-40.041 -32.459,-72.500005 -72.5,-72.500005 z"
       id="path4572"
       inkscape:connector-curvature="0" />
  </g>
  <g
     inkscape:groupmode="layer"
     id="layer3"
     inkscape:label="Numbers"
     style="display:none">
    <path
       inkscape:connector-curvature="0"
       style="fill:#000000;fill-rule:evenodd;stroke:#000000;stroke-width:1px"
       d="m 146.02151,212.37559 c -2.203,2.125 -4.945,3.188 -8.227,3.188 -3.109,0 -5.687,-0.894 -7.734,-2.684 -2.047,-1.789 -3.234,-4.128 -3.562,-7.019 l 6.375,-0.774 c 0.202,1.626 0.75,2.868 1.64,3.727 0.891,0.859 1.969,1.289 3.235,1.289 1.359,0 2.503,-0.516 3.433,-1.547 0.93,-1.031 1.395,-2.422 1.395,-4.172 0,-1.656 -0.446,-2.968 -1.336,-3.937 -0.891,-0.969 -1.977,-1.453 -3.258,-1.453 -0.844,0 -1.852,0.164 -3.024,0.492 l 0.727,-5.367 c 1.781,0.046 3.141,-0.34 4.078,-1.161 0.938,-0.82 1.406,-1.91 1.406,-3.269 0,-1.156 -0.343,-2.078 -1.031,-2.766 -0.688,-0.687 -1.602,-1.031 -2.742,-1.031 -1.125,0 -2.086,0.391 -2.883,1.172 -0.797,0.781 -1.281,1.922 -1.453,3.422 l -6.07,-1.032 c 0.422,-2.077 1.058,-3.738 1.91,-4.98 0.851,-1.242 2.039,-2.219 3.562,-2.93 1.524,-0.711 3.231,-1.066 5.121,-1.066 3.235,0 5.828,1.031 7.782,3.094 1.609,1.687 2.414,3.594 2.414,5.718 0,3.016 -1.649,5.423 -4.946,7.219 1.969,0.422 3.543,1.368 4.723,2.836 1.18,1.469 1.77,3.243 1.77,5.32 0,3.016 -1.102,5.587 -3.305,7.711 z"
       id="path4570" />
    <path
       inkscape:connector-curvature="0"
       style="fill:#000000;fill-rule:evenodd;stroke:#000000;stroke-width:1px"
       d="m 101.44351,208.40359 c 1.25,-2.071 3.718,-4.817 7.406,-8.239 2.969,-2.765 4.789,-4.64 5.461,-5.625 0.906,-1.359 1.359,-2.703 1.359,-4.031 0,-1.468 -0.394,-2.597 -1.183,-3.387 -0.789,-0.788 -1.879,-1.183 -3.27,-1.183 -1.375,0 -2.469,0.414 -3.281,1.242 -0.813,0.828 -1.281,2.203 -1.406,4.125 l -6.563004,-0.656 c 0.391004,-3.625 1.617004,-6.227 3.680004,-7.805 2.062,-1.578 4.641,-2.367 7.734,-2.367 3.391,0 6.055,0.914 7.993,2.742 1.937,1.828 2.906,4.102 2.906,6.82 0,1.547 -0.278,3.02 -0.832,4.418 -0.555,1.399 -1.434,2.864 -2.637,4.395 -0.797,1.016 -2.235,2.477 -4.312,4.383 -2.079,1.906 -3.395,3.172 -3.95,3.797 -0.555,0.625 -1.004,1.234 -1.347,1.828 h 13.078 v 6.117 H 99.193506 c 0.25,-2.312 1.000004,-4.504 2.250004,-6.574 z"
       id="path4568" />
    <path
       inkscape:connector-curvature="0"
       style="fill:#000000;fill-rule:evenodd;stroke:#000000;stroke-width:1px"
       d="m 83.607506,190.15759 c -2.406,2.25 -5.242,3.914 -8.508,4.992 v -5.977 c 1.719,-0.562 3.586,-1.629 5.602,-3.199 2.015,-1.57 3.398,-3.402 4.148,-5.496 h 5.344 v 34.5 h -6.586 z"
       id="path6-2" />
  </g>
  <g
     inkscape:groupmode="layer"
     id="layer4"
     inkscape:label="Tail">
    <path
       style="fill:none;stroke:#000000;stroke-width:10;stroke-linecap:butt;stroke-linejoin:miter;stroke-miterlimit:4;stroke-dasharray:none;stroke-opacity:1"
       d="M 251.05287,334.93644 V 488.58051"
       id="path4636"
       inkscape:connector-curvature="0" />
  </g>
</svg>
