<?xml version="1.0" encoding="UTF-8" standalone="no"?>
<svg   xmlns:dc="http://purl.org/dc/elements/1.1/"   xmlns:cc="http://creativecommons.org/ns#"   xmlns:rdf="http://www.w3.org/1999/02/22-rdf-syntax-ns#"   xmlns:svg="http://www.w3.org/2000/svg"   xmlns="http://www.w3.org/2000/svg"   version="1.1"   viewBox="0 0 23.052618 41.573452"   height="23"   width="18">  <defs     id="defs2">    <marker       style="overflow:visible"       id="marker1384"       refX="0"       refY="0"       orient="auto">      <path         transform="matrix(0.4,0,0,0.4,2.96,0.4)"         style="fill:#000000;fill-opacity:1;fill-rule:evenodd;stroke:#000000;stroke-width:1.00000003pt;stroke-opacity:1"         d="m -2.5,-1 c 0,2.76 -2.24,5 -5,5 -2.76,0 -5,-2.24 -5,-5 0,-2.76 2.24,-5 5,-5 2.76,0 5,2.24 5,5 z"         id="path1382" />    </marker>    <marker       style="overflow:visible"       id="DotM"       refX="0"       refY="0"       orient="auto">      <path         transform="matrix(0.4,0,0,0.4,2.96,0.4)"         style="fill:#000000;fill-opacity:1;fill-rule:evenodd;stroke:#000000;stroke-width:1.00000003pt;stroke-opacity:1"         d="m -2.5,-1 c 0,2.76 -2.24,5 -5,5 -2.76,0 -5,-2.24 -5,-5 0,-2.76 2.24,-5 5,-5 2.76,0 5,2.24 5,5 z"         id="path910" />    </marker>    <marker       style="overflow:visible"       id="DotL"       refX="0"       refY="0"       orient="auto">      <path         transform="matrix(0.8,0,0,0.8,5.92,0.8)"         style="fill:#000000;fill-opacity:1;fill-rule:evenodd;stroke:#000000;stroke-width:1.00000003pt;stroke-opacity:1"         d="m -2.5,-1 c 0,2.76 -2.24,5 -5,5 -2.76,0 -5,-2.24 -5,-5 0,-2.76 2.24,-5 5,-5 2.76,0 5,2.24 5,5 z"         id="path907" />    </marker>  </defs>  <g     transform="translate(-32.112052,-59.290716)"     id="layer1">    <path       d="M 34.395833,98.5625 52.916666,61.520831"       style="fill:none;stroke:#000000;stroke-width:1;stroke-miterlimit:3.29999995;stroke-dasharray:none;stroke-opacity:1;marker-start:url(#DotM);marker-end:url(#marker1384)" />  </g></svg>
